<svg width="531" height="640" viewBox="0 0 531 640" fill="none" xmlns="http://www.w3.org/2000/svg">
<path d="M98.6856 465.676C93.5181 470.988 88.5291 476.457 83.3771 481.787C71.8306 493.752 59.7233 505.328 49.0056 518.486C41.4338 527.821 33.9854 537.513 27.8506 548.517C19.9676 562.562 14.3413 579.745 16.4982 597.478C16.5896 598.248 16.6955 599.018 16.8158 599.787C19.5171 619.742 37.7672 632.4 52.9134 636.124C68.6623 640.419 83.9459 640.046 98.9356 639.472C122.59 638.375 145.87 633.077 167.958 624.058C213.828 605.324 257.504 573.889 283.387 527.048C294.126 507.292 302.172 485.549 305.954 462.86C314.766 412.232 299.448 360.62 274.804 319.065C272.322 314.802 269.695 310.635 266.95 306.563C247.736 277.786 224.968 251.524 204.557 224.366C191.607 206.847 180.608 188.113 169.244 169.654C168.465 168.394 167.674 167.115 166.871 165.814C152.23 142.487 143.204 114.283 149.554 87.0965C152.62 73.5798 160.155 61.2771 169.911 52.012L169.676 52.2804C182.718 41.0253 197.87 32.1311 212.052 28.7361C223.094 26.0726 232.636 28.1036 240.87 33.4749L237.795 31.3359C242.577 36.2905 245.322 41.0623 246.321 45.2323C250.736 57.8533 234.076 83.3554 216.859 102.811C199.162 123.114 178.929 142.262 157.556 159.703L157.77 159.543C155.829 160.96 153.877 162.369 151.914 163.769C121.29 185.702 89.3499 205.806 59.222 230.088C44.2619 242.325 29.5607 255.516 17.1938 272.483C5.73246 288.416 -7.97462 314.76 5.74384 342.208C6.1868 343.068 6.65459 343.918 7.14635 344.756C19.1669 363.01 35.9437 363.565 47.1755 364.185C59.2341 364.303 69.8736 362.127 80.0764 359.194C100.398 353.184 118.568 343.726 135.423 332.734C169.002 310.614 196.873 282.18 220.144 251.104C221.505 249.281 222.872 247.459 224.246 245.638C244.509 218.776 264.365 191.682 284.956 165.201C320.31 120.415 357.323 74.5441 407.003 46.5948C411.074 44.3753 415.264 42.3912 419.509 40.6414L419.412 40.6829C424.779 38.67 430.16 36.8773 435.585 35.3167C440.234 33.9802 444.902 32.8257 449.58 31.8913C458.405 30.0806 467.391 29.2234 476.685 29.1861L476.444 29.1778C477.293 29.2299 478.129 29.289 478.958 29.3578C483.647 29.7533 488.299 30.8407 492.054 32.6166C494.586 33.7965 496.213 36.1474 496.584 38.6296C496.779 39.7915 496.631 41.1071 496.273 42.4596C495.228 45.4301 492.743 48.1409 490.968 49.9294C489.821 51.1143 488.713 52.0151 488.186 52.7586C487.659 53.5092 487.235 54.127 486.907 54.6311C486.503 55.2512 486.17 55.6808 485.82 55.9139C482.272 60.7244 480.88 66.6457 482.124 72.4864C483.357 78.3207 487.123 83.5962 492.423 87.0412C497.723 90.4862 504.074 91.7865 509.906 90.5451C515.748 89.31 520.595 85.6346 523.55 80.4384C523.55 80.4384 523.55 80.4384 523.55 80.4384C526.31 75.8918 528.284 71.0347 529.371 66.1552C530.258 62.1794 530.517 58.1759 530.158 54.289C529.8 50.3959 528.35 46.6363 526.345 43.2617C523.235 38.0083 518.202 33.8501 513.098 30.8928C511.032 29.7592 508.962 28.7499 506.987 27.8236C502.713 25.7891 498.523 24.954 494.937 24.091C489.506 22.8076 484.46 22.8188 479.537 22.3818C478.67 22.3099 477.803 22.2414 476.927 22.1745L476.685 22.1662C467.299 22.0582 457.513 22.094 448.011 24.0465C442.991 25.0494 438.081 26.4741 433.303 28.1327C427.724 30.0706 422.327 32.3125 416.962 34.6695L416.864 34.711C412.55 36.7774 408.302 39.014 404.112 41.3373C353.052 70.6213 316.527 117.221 281.009 162.131C260.363 188.684 240.456 215.757 219.507 241.957C218.088 243.733 216.658 245.497 215.22 247.248C191.05 276.667 158.849 298.731 124.861 313.11C107.833 320.287 90.1819 325.677 73.0331 328.324C64.5149 329.618 56.0394 330.193 48.7895 329.485C45.2257 329.141 42.0252 328.415 40.0065 327.547C39.0051 327.127 38.3639 326.699 38.1334 326.486C37.8895 326.261 38.0746 326.341 38.2247 326.597C38.0546 326.302 37.8956 326.01 37.7465 325.721C27.7167 310.57 52.042 272.573 75.1663 246.664C99.3396 219.042 127.335 193.646 157.72 171.911C159.669 170.521 161.631 169.154 163.604 167.808L163.817 167.649C185.755 150.865 209.401 136.396 232.069 119.007C252.367 101.189 284.571 82.1832 278.35 37.2861C275.135 24.3364 266.879 14.6944 258.58 8.01615L255.505 5.87716C239.403 -2.15955 219.055 -1.47884 204.076 5.04242C184.194 13.4008 170.95 28.2641 159.699 43.0712L159.464 43.3395C150.753 56.3083 145.113 70.6364 141.755 85.3133C134.793 114.69 141.972 146.261 157.503 171.539C158.304 172.863 159.098 174.162 159.887 175.438C171.406 194.15 185.119 211.533 198.109 229.101C218.658 256.456 234.53 286.318 249.421 316.789C251.447 320.896 253.394 325.029 255.265 329.178C273.995 370.311 278.737 415.143 271.434 457.082C268.248 476.158 262.691 494.989 254.984 513.305C237.797 553.854 204.205 589.982 162.417 612.294C142.894 622.794 120.85 629.468 98.5462 630.481C70.8038 632.266 39.3918 616.492 38.5592 596.566C38.4828 596.006 38.4115 595.447 38.3452 594.888C36.7946 582.246 38.3204 568.706 42.5924 554.914C45.8742 544.269 50.6187 533.671 56.4144 523.595C64.6062 509.395 73.7044 495.384 84.1264 482.449C88.7755 476.686 93.7633 471.214 98.6856 465.676Z" fill="white"/>
</svg>
